<svg width="115" height="37" viewBox="0 0 115 37" fill="none" xmlns="http://www.w3.org/2000/svg">
<g clip-path="url(#clip0_2_259)">
<path d="M22.2693 0V28.7638C20.3326 28.7638 19.3623 28.7638 17.4057 28.6997C13.6203 23.6709 9.97865 18.5419 6.48073 13.3129V28.3955C4.32848 28.3114 2.15625 28.2033 0 28.0751V0H4.86354C8.5651 5.37319 12.1589 10.8104 15.7965 16.2277V0H22.2693Z" fill="#144DAF"/>
<path d="M41.6287 18.8542C41.61 17.5803 41.0947 16.3643 40.1933 15.4663C39.2918 14.5684 38.0757 14.0599 36.8051 14.0496C35.4914 14.0946 34.2483 14.6569 33.3453 15.6148C32.4424 16.5727 31.9523 17.8488 31.9815 19.1665C31.9793 20.4008 32.466 21.5854 33.3346 22.4601C34.2031 23.3348 35.3825 23.8278 36.6134 23.831H36.8011C38.0836 23.7636 39.2932 23.2123 40.1872 22.2877C41.0811 21.3631 41.5932 20.1337 41.6207 18.8462L41.6287 18.8542ZM47.6901 8.37209V28.4275C45.6657 28.4955 43.6452 28.5796 41.6287 28.6237V26.8259C40.837 27.6155 39.8955 28.238 38.86 28.6568C37.8244 29.0756 36.7157 29.2821 35.5992 29.2643C33.0164 29.1491 30.5751 28.0485 28.775 26.1877C26.975 24.327 25.9522 21.8467 25.916 19.2546C25.916 13.8854 29.941 8.29602 35.5992 8.07981C36.7174 8.04865 37.83 8.24911 38.8675 8.66866C39.9049 9.08821 40.8449 9.71784 41.6287 10.5182V8.55227L47.6901 8.37209Z" fill="#144DAF"/>
<path d="M71.3806 7.51123C68.9847 14.0496 66.7087 20.6079 64.4486 27.1903C62.8514 32.4553 58.6188 36.3992 52.9167 36.0788V30.5976C54.0269 30.679 55.1318 30.3799 56.0503 29.7492C56.9688 29.1185 57.6463 28.1936 57.9719 27.1262C55.2846 20.8441 52.5493 14.5861 49.9219 8.308C52.138 8.22392 54.3781 8.13584 56.5943 8.07178C58.0797 12.0756 59.5784 16.0889 61.0905 20.1114C62.3363 15.9874 63.6061 11.8741 64.8998 7.77149C67.0521 7.65938 69.2083 7.57529 71.3806 7.51123Z" fill="#144DAF"/>
<path d="M92.8346 7.31494C90.3828 13.7211 88.1028 20.1754 85.9066 26.6897C84.4212 31.9988 80.1167 36.2989 74.3707 36.0787V30.0289C75.499 30.1054 76.6191 29.7884 77.5411 29.1317C78.4631 28.475 79.1304 27.5189 79.4299 26.4254C76.8703 20.0793 74.1591 13.8012 71.3799 7.54316C73.596 7.4791 75.8361 7.39101 78.0523 7.371C79.5776 11.3188 81.107 15.2466 82.5445 19.2184C83.7424 15.2146 85.0202 11.2748 86.3538 7.32695C88.5101 7.32695 90.6623 7.32695 92.8346 7.35097" fill="#144DAF"/>
<path d="M108.934 17.4608C108.892 16.1719 108.377 14.944 107.487 14.0123C106.598 13.0807 105.397 12.5108 104.115 12.412C102.926 12.3327 101.754 12.7289 100.856 13.5139C99.9583 14.2988 99.407 15.4084 99.323 16.6C99.323 16.7014 99.323 16.8015 99.323 16.9003C99.3078 18.2299 99.7973 19.5157 100.692 20.497C101.587 21.4783 102.82 22.0819 104.143 22.1854C105.406 22.1993 106.624 21.7094 107.528 20.8235C108.432 19.9376 108.947 18.7281 108.962 17.4608H108.934ZM115 8.0077V28.0551C112.979 27.951 110.955 27.8389 108.934 27.7508V25.8089C108.14 26.5871 107.197 27.1951 106.161 27.5957C105.125 27.9963 104.018 28.1812 102.909 28.1392C97.3584 27.9029 93.2695 21.9892 93.2256 16.7922C93.2499 14.2142 94.2745 11.7471 96.0821 9.91369C97.8897 8.08028 100.338 7.02471 102.909 6.9707C104.033 6.97424 105.146 7.2035 106.181 7.64497C107.216 8.08644 108.152 8.73118 108.934 9.54119V7.70341C110.955 7.7915 112.975 7.8996 115 8.0077Z" fill="#144DAF"/>
</g>
<defs>
<clipPath id="clip0_2_259">
<rect width="115" height="36.0949" fill="white"/>
</clipPath>
</defs>
</svg>
